<svg width="12" height="12" viewBox="0 0 12 12" fill="none" xmlns="http://www.w3.org/2000/svg">
<path d="M8.00001 6.45006V8.55006C8.00001 10.3001 7.30002 11.0001 5.55002 11.0001H3.45002C1.70002 11.0001 1.00002 10.3001 1.00002 8.55006V6.45006C1.00002 4.70006 1.70002 4.00006 3.45002 4.00006H5.55002C7.30002 4.00006 8.00001 4.70006 8.00001 6.45006Z" stroke="white" stroke-linecap="round" stroke-linejoin="round"/>
<path d="M11 3.45006V5.55006C11 7.30006 10.3 8.00006 8.55002 8.00006H8.00002V6.45006C8.00002 4.70006 7.30002 4.00006 5.55002 4.00006H4.00002V3.45006C4.00002 1.70006 4.70002 1.00006 6.45001 1.00006H8.55002C10.3 1.00006 11 1.70006 11 3.45006Z" stroke="white" stroke-linecap="round" stroke-linejoin="round"/>
</svg>
