<svg width="18" height="18" viewBox="0 0 18 18" fill="none" xmlns="http://www.w3.org/2000/svg">
<path d="M9 0C4.03725 0 0 4.03725 0 9C0 13.9628 4.03725 18 9 18C13.9628 18 18 13.9628 18 9C18 4.03725 13.9628 0 9 0ZM13.5615 7.09275L8.6865 11.9677C8.54025 12.114 8.34825 12.1875 8.15625 12.1875C7.96425 12.1875 7.77225 12.114 7.626 11.9677L5.1885 9.53025C4.89525 9.237 4.89525 8.763 5.1885 8.46975C5.48175 8.1765 5.95575 8.1765 6.249 8.46975L8.15625 10.377L12.501 6.03225C12.7942 5.739 13.2683 5.739 13.5615 6.03225C13.8548 6.3255 13.8548 6.7995 13.5615 7.09275Z" fill="url(#paint0_linear_24_27)"/>
<defs>
<linearGradient id="paint0_linear_24_27" x1="0" y1="0" x2="21.7697" y2="6.90678" gradientUnits="userSpaceOnUse">
<stop stop-color="#101CE7"/>
<stop offset="1" stop-color="#2DACFF"/>
</linearGradient>
</defs>
</svg>
